<svg viewBox="0 0 600 530" version="1.1" xmlns="http://www.w3.org/2000/svg" xmlns:xlink="http://www.w3.org/1999/xlink">
            <g id="left33-+-left33-copy-+-hand209" fill="#556270" sketch:type="MSLayerGroup" transform="translate(1.000000, 0.000000)">
                <g id="left33" transform="translate(0.000000, 56.000000)" sketch:type="MSShapeGroup">
                    <g id="_x34_83._Back">
                        <path d="M53.5703704,136.563309 L155.508148,34.4492806 C160.916543,29.0402878 160.916543,20.2580935 155.508148,14.8411871 L145.720494,5.03615108 C140.314074,-0.376798561 131.551605,-0.376798561 126.145185,5.03615108 L4.6162963,126.760252 C-0.788148148,132.173201 -0.788148148,140.951439 4.6162963,146.368345 L126.145185,268.086511 C131.551605,273.501439 140.314074,273.501439 145.720494,268.086511 L155.508148,258.283453 C160.916543,252.866547 160.916543,244.084353 155.508148,238.67536 L53.5703704,136.563309 L53.5703704,136.563309 Z" id="Shape"></path>
                    </g>
                </g>
                <g id="left33-copy" transform="translate(517.500000, 192.000000) scale(-1, 1) translate(-517.500000, -192.000000) translate(437.500000, 55.500000)" sketch:type="MSShapeGroup">
                    <g id="_x34_83._Back">
                        <path d="M53.5703704,136.563309 L155.508148,34.4492806 C160.916543,29.0402878 160.916543,20.2580935 155.508148,14.8411871 L145.720494,5.03615108 C140.314074,-0.376798561 131.551605,-0.376798561 126.145185,5.03615108 L4.6162963,126.760252 C-0.788148148,132.173201 -0.788148148,140.951439 4.6162963,146.368345 L126.145185,268.086511 C131.551605,273.501439 140.314074,273.501439 145.720494,268.086511 L155.508148,258.283453 C160.916543,252.866547 160.916543,244.084353 155.508148,238.67536 L53.5703704,136.563309 L53.5703704,136.563309 Z" id="Shape"></path>
                    </g>
                </g>
                <g id="hand" transform="translate(170.500000, 0.500000)" sketch:type="MSShapeGroup">
                    <g id="Group">
                        <path d="M256.209,240.87 C259.818,232.493 260.111,224.909 257.099,218.284 C255.928,215.699 254.232,213.288 252.078,211.135 C248.457,207.515 244.207,205.249 241.137,203.951 C243.494,195.806 242.889,188.69 239.346,182.774 C238.375,181.146 237.154,179.623 235.758,178.196 C226.279,168.497 219.113,170.986 219.113,170.986 C219.113,170.986 222.986,155.52 211.777,144.556 C200.568,133.592 189.91,138.277 180.662,147.675 L134.053,194.264 C127.469,191.792 117.108,185.563 106.438,186.787 C87.432,188.97 82.479,201.677 79.799,212.314 C73.733,236.345 75.537,272.175 68.672,286.019 C60.229,303.042 43.695,317.337 43.695,317.337 L108.525,382.167 C134.921,355.772 160.316,348.935 179.265,341.007 C222.208,323.042 243.286,301.534 254.009,289.984 C276.244,266.035 259.336,245.247 256.209,240.87 L256.209,240.87 Z" id="Shape"></path>
                        <path class="primary-color" d="M97.305,50.727 L139.102,39.312 C136.815,34.058 133.842,29.088 130.264,24.541 C120.248,11.814 105.951,3.13 90.007,0.089 C88.298,-0.238 86.536,0.35 85.366,1.642 C84.196,2.932 83.782,4.74 84.272,6.412 L97.305,50.727 L97.305,50.727 Z" id="Shape"></path>
                        <path class="primary-color" d="M88.761,136.573 L123.085,180.184 L168.94,137.675 L137.731,98.022 C142.996,87.32 145.537,75.41 145.104,63.371 C145.047,61.836 144.292,60.413 143.049,59.509 C141.807,58.605 140.219,58.322 138.742,58.74 L53.73,82.823 L29.132,17.823 C28.525,16.218 27.136,15.036 25.454,14.693 C23.768,14.353 22.032,14.894 20.845,16.133 C-3.915,41.974 -5.905,82.654 16.216,110.761 C29.995,128.268 50.695,138.31 73.001,138.311 C78.312,138.312 83.6,137.728 88.761,136.573 L88.761,136.573 Z" id="Shape"></path>
                    </g>
                </g>
            </g>
            <text id="BWPP" sketch:type="MSTextLayer" alignment-baseline="baseline" fill="#556270" font-family="Noto Sans" font-size="4em" font-weight="bold" text-anchor="middle" x="300" y="530" style="font-size: 4em;">
                BWPP
            </text>
</svg>